<?xml version="1.0" standalone="no"?>
<!DOCTYPE svg PUBLIC "-//W3C//DTD SVG 20010904//EN"
 "http://www.w3.org/TR/2001/REC-SVG-20010904/DTD/svg10.dtd">
<svg version="1.0" xmlns="http://www.w3.org/2000/svg"
 width="1024.000000pt" height="1024.000000pt" viewBox="0 0 1024.000000 1024.000000"
 preserveAspectRatio="xMidYMid meet">

<g transform="translate(0.000000,1024.000000) scale(0.100000,-0.100000)"
fill="#000000" stroke="none">
<path d="M3535 8793 c-56 -7 -165 -35 -171 -44 -3 -5 -14 -9 -25 -9 -10 0 -19
-4 -19 -10 0 -5 -9 -10 -20 -10 -11 0 -20 -4 -20 -10 0 -5 -7 -10 -15 -10 -9
0 -18 -7 -21 -15 -4 -8 -15 -15 -25 -15 -10 0 -19 -7 -19 -15 0 -8 -9 -15 -20
-15 -13 0 -20 -7 -20 -20 0 -13 -7 -20 -20 -20 -13 0 -20 -7 -20 -19 0 -10 -9
-21 -20 -24 -12 -3 -20 -14 -20 -27 0 -13 -8 -24 -20 -27 -13 -3 -20 -14 -20
-29 0 -13 -9 -28 -20 -34 -13 -7 -20 -21 -20 -40 0 -37 -9 -60 -25 -60 -19 0
-25 -148 -25 -633 l0 -439 -77 9 c-148 16 -269 9 -393 -22 -63 -15 -116 -32
-118 -37 -2 -4 -11 -8 -20 -8 -9 0 -30 -7 -46 -15 -15 -8 -35 -15 -42 -15 -8
0 -14 -7 -14 -15 0 -8 -9 -15 -20 -15 -11 0 -20 -4 -20 -10 0 -5 -9 -10 -20
-10 -11 0 -20 -7 -20 -15 0 -8 -9 -15 -20 -15 -11 0 -20 -7 -20 -15 0 -8 -9
-15 -20 -15 -11 0 -20 -6 -20 -14 0 -7 -9 -16 -20 -19 -11 -3 -20 -12 -20 -20
0 -8 -9 -17 -20 -20 -12 -3 -20 -14 -20 -26 0 -14 -6 -21 -20 -21 -15 0 -20
-7 -20 -25 0 -18 -5 -25 -20 -25 -15 0 -20 -7 -20 -26 0 -17 -6 -28 -20 -31
-14 -4 -20 -14 -20 -34 0 -18 -7 -32 -20 -39 -13 -7 -20 -21 -20 -40 0 -37 -9
-60 -25 -60 -8 0 -14 -27 -18 -82 -5 -58 -11 -85 -22 -91 -13 -7 -15 -92 -15
-703 l0 -695 -137 3 -138 3 -3 143 c-2 121 -5 142 -18 142 -9 0 -18 9 -21 19
-9 33 -123 38 -123 5 0 -8 -9 -14 -20 -14 -20 0 -20 -7 -20 -550 0 -503 1
-550 17 -558 12 -7 18 -28 21 -73 3 -45 10 -69 23 -82 12 -12 19 -32 19 -57 0
-28 4 -40 14 -40 17 0 26 -21 26 -60 0 -19 6 -29 20 -33 15 -4 20 -14 20 -37
0 -23 5 -33 20 -37 14 -4 20 -14 20 -33 0 -19 6 -29 20 -33 14 -3 20 -14 20
-31 0 -19 5 -26 20 -26 15 0 20 -7 20 -25 0 -18 5 -25 20 -25 15 0 20 -7 20
-25 0 -18 5 -25 20 -25 13 0 20 -7 20 -20 0 -13 7 -20 20 -20 13 0 20 -7 20
-20 0 -13 7 -20 20 -20 13 0 20 -7 20 -20 0 -13 7 -20 20 -20 11 0 20 -7 20
-15 0 -8 8 -15 19 -15 10 0 21 -9 24 -20 3 -11 12 -20 20 -20 8 0 17 -7 21
-15 3 -8 12 -15 21 -15 8 0 15 -4 15 -10 0 -5 9 -10 20 -10 11 0 20 -7 20 -15
0 -8 9 -15 19 -15 10 0 21 -7 25 -15 3 -8 12 -15 21 -15 8 0 15 -4 15 -10 0
-5 9 -10 20 -10 11 0 20 -4 20 -10 0 -5 9 -10 20 -10 11 0 20 -4 20 -10 0 -5
9 -10 20 -10 11 0 20 -4 20 -10 0 -5 6 -10 14 -10 7 0 27 -7 42 -15 16 -8 37
-15 46 -15 9 0 19 -4 22 -9 8 -12 244 -68 324 -77 l62 -7 0 -318 0 -319 -22
-5 c-13 -2 -133 -6 -268 -7 -210 -3 -250 -5 -279 -20 -19 -10 -40 -18 -48 -18
-7 0 -13 -4 -13 -10 0 -5 -9 -10 -20 -10 -11 0 -20 -4 -20 -10 0 -5 -9 -10
-20 -10 -13 0 -20 -7 -20 -20 0 -13 -7 -20 -20 -20 -11 0 -20 -6 -20 -14 0 -7
-9 -16 -20 -19 -11 -3 -20 -14 -20 -25 0 -11 -9 -22 -20 -25 -14 -3 -20 -14
-20 -32 0 -18 -6 -29 -20 -32 -14 -4 -20 -14 -20 -33 0 -49 -12 -90 -26 -90
-11 0 -14 -24 -14 -114 0 -105 1 -114 20 -119 12 -3 20 -14 20 -26 0 -14 6
-21 20 -21 11 0 20 -7 20 -15 0 -13 109 -15 920 -15 607 0 920 3 920 10 0 6 8
10 19 10 10 0 21 9 24 20 3 11 12 20 21 20 14 0 16 18 16 128 0 115 -2 129
-20 145 -14 11 -20 29 -20 57 0 29 -5 42 -20 50 -11 6 -20 21 -20 34 0 15 -7
26 -20 29 -12 3 -20 14 -20 26 0 14 -6 21 -20 21 -13 0 -20 7 -20 20 0 13 -7
20 -20 20 -11 0 -20 7 -20 15 0 8 -9 15 -20 15 -11 0 -20 7 -20 15 0 8 -9 15
-20 15 -11 0 -20 4 -20 8 0 5 -33 16 -72 25 -58 14 -121 17 -300 17 l-228 0 0
324 0 325 48 6 c66 8 306 67 312 76 3 4 22 10 43 14 20 4 37 11 37 16 0 5 9 9
20 9 11 0 20 5 20 10 0 6 9 10 20 10 11 0 20 5 20 10 0 6 9 10 20 10 11 0 20
5 20 10 0 6 9 10 20 10 11 0 20 5 20 10 0 6 9 10 20 10 11 0 20 7 20 15 0 8 9
15 20 15 11 0 20 5 20 10 0 6 9 10 20 10 11 0 20 7 20 15 0 8 9 15 20 15 11 0
20 7 20 15 0 8 9 15 20 15 11 0 20 7 20 15 0 8 7 15 16 15 9 0 18 9 21 20 3
11 14 20 24 20 12 0 19 7 19 20 0 13 7 20 20 20 13 0 20 7 20 20 0 13 7 20 20
20 13 0 20 7 20 20 0 13 7 20 20 20 15 0 20 7 20 25 0 18 5 25 20 25 15 0 20
7 20 25 0 18 5 25 20 25 15 0 20 7 20 26 0 17 6 28 20 31 14 4 20 14 20 33 0
19 6 29 20 33 15 4 20 14 20 37 0 23 5 33 20 37 14 4 20 14 20 33 0 39 9 60
26 60 9 0 14 11 14 33 0 46 10 77 25 77 8 0 14 24 17 71 4 52 10 74 22 81 14
8 16 61 16 553 0 538 0 545 -20 545 -11 0 -20 6 -20 14 0 17 -50 28 -90 20
-16 -4 -30 -13 -30 -20 0 -8 -9 -14 -20 -14 -18 0 -20 -8 -22 -147 l-3 -148
-137 -3 -138 -3 0 685 c0 606 -2 686 -15 694 -11 6 -17 32 -22 95 -4 59 -10
87 -18 87 -16 0 -25 23 -25 65 0 24 -5 34 -20 38 -14 4 -20 14 -20 35 0 21 -6
31 -20 35 -14 3 -20 14 -20 32 0 18 -6 29 -20 32 -13 3 -20 14 -20 29 0 17 -6
24 -20 24 -13 0 -20 7 -20 20 0 11 -7 20 -15 20 -9 0 -20 11 -25 25 -5 14 -16
25 -25 25 -8 0 -15 7 -15 15 0 8 -8 15 -19 15 -10 0 -21 9 -24 20 -3 11 -12
20 -21 20 -9 0 -16 5 -16 10 0 6 -9 10 -20 10 -11 0 -20 7 -20 15 0 8 -9 15
-20 15 -11 0 -20 5 -20 10 0 6 -9 10 -20 10 -20 0 -20 7 -20 555 0 544 0 554
20 565 13 7 20 21 20 41 0 22 5 32 20 36 13 3 20 14 20 29 0 17 6 24 20 24 13
0 20 7 20 20 0 13 7 20 20 20 11 0 20 5 20 10 0 6 7 10 15 10 9 0 18 7 21 15
4 8 14 15 23 15 9 0 30 8 46 18 28 16 155 17 2145 20 2111 3 2230 1 2230 -29
0 -5 9 -9 20 -9 11 0 20 -4 20 -10 0 -5 9 -10 20 -10 11 0 20 -7 20 -15 0 -8
9 -15 20 -15 11 0 20 -6 20 -14 0 -7 9 -16 20 -19 11 -3 20 -14 20 -25 0 -11
9 -22 20 -25 15 -4 20 -14 20 -36 0 -20 5 -31 14 -31 19 0 26 -22 26 -85 0
-34 5 -59 15 -69 13 -13 15 -166 15 -1256 0 -1090 -2 -1243 -15 -1256 -10 -10
-15 -35 -15 -74 0 -67 -7 -90 -26 -90 -9 0 -14 -12 -14 -34 0 -25 -5 -35 -20
-39 -14 -3 -20 -14 -20 -31 0 -19 -5 -26 -20 -26 -13 0 -20 -7 -20 -20 0 -12
-7 -20 -16 -20 -9 0 -18 -9 -21 -20 -3 -11 -14 -20 -24 -20 -11 0 -19 -7 -19
-15 0 -8 -9 -15 -20 -15 -11 0 -20 -4 -20 -10 0 -5 -9 -10 -20 -10 -11 0 -20
-4 -20 -8 0 -5 -24 -15 -52 -23 -43 -11 -233 -14 -1038 -16 -542 -1 -1004 -5
-1027 -8 -24 -4 -43 -10 -43 -16 0 -5 -9 -9 -20 -9 -11 0 -20 -4 -20 -9 0 -5
-9 -11 -20 -14 -11 -3 -20 -12 -20 -20 0 -8 -9 -17 -20 -20 -11 -3 -20 -12
-20 -20 0 -8 -9 -17 -20 -20 -11 -3 -20 -12 -20 -21 0 -9 -7 -16 -15 -16 -9 0
-20 -11 -25 -25 -5 -14 -16 -25 -25 -25 -8 0 -15 -9 -15 -20 0 -13 -7 -20 -20
-20 -13 0 -20 -7 -20 -20 0 -13 -7 -20 -20 -20 -13 0 -20 -7 -20 -20 0 -13 -7
-20 -20 -20 -13 0 -20 -7 -20 -20 0 -13 -7 -20 -20 -20 -13 0 -20 -7 -20 -20
0 -13 -7 -20 -20 -20 -13 0 -20 -7 -20 -20 0 -13 -7 -20 -20 -20 -13 0 -20 -7
-20 -20 0 -13 -7 -20 -20 -20 -13 0 -20 -7 -20 -20 0 -13 -7 -20 -20 -20 -13
0 -20 -7 -20 -20 0 -13 -7 -20 -20 -20 -13 0 -20 -7 -20 -20 0 -13 -7 -20 -20
-20 -13 0 -20 -7 -20 -19 0 -10 -9 -21 -20 -24 -11 -3 -20 -12 -20 -21 0 -9
-7 -16 -15 -16 -9 0 -20 -11 -25 -25 -5 -14 -16 -25 -25 -25 -8 0 -15 -9 -15
-20 0 -13 -7 -20 -20 -20 -13 0 -20 -7 -20 -20 0 -13 -7 -20 -20 -20 -13 0
-20 -7 -20 -20 0 -13 -7 -20 -20 -20 -13 0 -20 -7 -20 -20 0 -13 -7 -20 -20
-20 -13 0 -20 -7 -20 -20 0 -13 -7 -20 -20 -20 -13 0 -20 -7 -20 -20 0 -13 -7
-20 -20 -20 -13 0 -20 -7 -20 -20 0 -13 -7 -20 -20 -20 -13 0 -20 -7 -20 -20
0 -13 -7 -20 -20 -20 -13 0 -20 -7 -20 -20 0 -13 -7 -20 -20 -20 -13 0 -20 -7
-20 -20 0 -13 -7 -20 -20 -20 -13 0 -20 -7 -20 -20 0 -13 -7 -20 -20 -20 -15
0 -20 -7 -20 -25 0 -14 -8 -29 -20 -35 -27 -15 -27 -65 0 -80 11 -6 20 -20 20
-30 0 -13 7 -20 19 -20 11 0 21 -5 23 -11 5 -16 78 0 78 17 0 8 9 14 20 14 13
0 20 7 20 20 0 13 7 20 20 20 13 0 20 7 20 20 0 13 7 20 20 20 13 0 20 7 20
20 0 13 7 20 20 20 13 0 20 7 20 20 0 13 7 20 20 20 13 0 20 7 20 20 0 13 7
20 20 20 13 0 20 7 20 20 0 13 7 20 20 20 13 0 20 7 20 20 0 13 7 20 20 20 13
0 20 7 20 20 0 13 7 20 20 20 13 0 20 7 20 20 0 13 7 20 20 20 13 0 20 7 20
20 0 13 7 20 20 20 13 0 20 7 20 20 0 13 7 20 20 20 13 0 20 7 20 20 0 13 7
20 20 20 13 0 20 7 20 20 0 13 7 20 20 20 13 0 20 7 20 19 0 10 9 21 20 24 11
3 20 12 20 20 0 8 9 17 20 20 11 3 20 12 20 20 0 8 9 17 20 20 11 3 20 12 20
20 0 8 9 17 20 20 11 3 20 12 20 20 0 8 9 17 20 20 11 3 20 12 20 21 0 9 7 16
15 16 9 0 20 11 25 25 5 14 16 25 25 25 8 0 15 7 15 16 0 9 9 18 20 21 11 3
20 12 20 20 0 8 9 17 20 20 11 3 20 14 20 24 0 12 7 19 20 19 12 0 20 7 20 16
0 9 9 18 20 21 11 3 20 14 20 24 0 12 7 19 20 19 13 0 20 7 20 20 0 13 7 20
20 20 13 0 20 7 20 20 0 13 7 20 20 20 13 0 20 7 20 19 0 13 10 20 31 25 17 3
471 6 1008 6 883 0 983 1 1049 17 39 9 72 20 72 25 0 4 9 8 20 8 11 0 20 5 20
10 0 6 9 10 20 10 11 0 20 5 20 10 0 6 9 10 20 10 11 0 20 7 20 15 0 8 9 15
20 15 11 0 20 7 20 15 0 8 9 15 20 15 11 0 20 7 20 15 0 8 9 15 20 15 13 0 20
7 20 20 0 13 7 20 20 20 14 0 20 7 20 21 0 12 8 23 20 26 11 3 20 14 20 25 0
11 9 22 20 25 14 4 20 14 20 35 0 21 6 31 20 35 14 4 20 14 20 33 0 37 9 60
25 60 8 0 14 27 18 82 5 58 11 85 22 91 13 7 15 156 15 1297 0 1153 -2 1290
-16 1304 -9 10 -17 42 -21 86 -4 46 -10 70 -18 70 -15 0 -25 22 -25 57 0 16
-7 27 -20 30 -14 4 -20 14 -20 34 0 22 -5 29 -20 29 -15 0 -20 7 -20 25 0 18
-5 25 -20 25 -13 0 -20 7 -20 20 0 13 -7 20 -20 20 -13 0 -20 7 -20 20 0 13
-7 20 -20 20 -11 0 -20 7 -20 15 0 8 -9 15 -20 15 -11 0 -20 5 -20 10 0 6 -9
10 -20 10 -11 0 -20 7 -20 15 0 8 -8 15 -18 15 -10 0 -22 4 -27 9 -6 5 -46 20
-90 32 l-80 23 -2070 2 c-1138 1 -2083 -1 -2100 -3z m-620 -1748 c33 -8 103
-36 155 -62 165 -81 304 -243 354 -412 9 -30 16 -61 16 -68 0 -10 -38 -13
-180 -13 -197 0 -235 -8 -265 -54 -27 -40 -16 -123 19 -153 26 -22 32 -23 232
-23 l204 0 0 -135 0 -135 -201 0 -201 0 -34 -34 c-29 -29 -34 -41 -34 -83 0
-51 18 -82 57 -102 14 -7 93 -11 217 -11 l196 0 0 -125 0 -125 -185 0 c-136 0
-195 -4 -219 -14 -99 -41 -84 -186 22 -216 20 -5 115 -10 210 -10 l172 0 0
-387 c0 -309 -3 -401 -15 -451 -34 -143 -102 -259 -214 -365 -262 -246 -664
-265 -953 -45 -110 84 -190 195 -244 338 l-29 75 -3 418 -3 417 173 0 c95 0
190 5 210 10 75 21 109 101 73 170 -28 54 -54 60 -265 60 l-190 0 0 125 0 125
194 0 c107 0 206 4 220 10 32 12 66 65 66 103 0 36 -23 81 -52 101 -19 13 -58
16 -225 16 l-203 0 0 135 0 136 199 -1 c166 -1 204 1 224 14 30 20 47 57 47
102 0 44 -11 66 -47 90 -24 17 -53 20 -224 24 l-196 5 14 55 c25 98 81 196
160 280 115 122 245 194 408 226 85 17 255 11 340 -11z m-1152 -2392 c5 -235
15 -298 72 -434 115 -273 382 -489 685 -551 136 -29 348 -21 473 16 175 52
304 133 437 273 186 196 250 383 250 734 l0 179 135 0 135 0 0 -187 c0 -347
-48 -533 -196 -761 -67 -103 -216 -254 -327 -330 -438 -301 -1024 -292 -1442
23 -211 159 -355 356 -437 595 -44 131 -58 240 -58 463 l0 197 134 0 134 0 5
-217z m1634 -2419 c49 -40 93 -111 100 -163 l6 -41 -779 2 -779 3 4 30 c7 64
74 159 136 194 14 7 201 10 647 8 l626 -2 39 -31z"/>
</g>
</svg>
